<?xml version="1.0" standalone="no"?>
<!DOCTYPE svg PUBLIC "-//W3C//DTD SVG 20010904//EN"
 "http://www.w3.org/TR/2001/REC-SVG-20010904/DTD/svg10.dtd">
<svg version="1.0" xmlns="http://www.w3.org/2000/svg"
 width="148.000000pt" height="148.000000pt" viewBox="0 0 148.000000 148.000000"
 preserveAspectRatio="xMidYMid meet">
<metadata>
Created by potrace 1.11, written by Peter Selinger 2001-2013
</metadata>
<g transform="translate(0.000000,148.000000) scale(0.100000,-0.100000)"
fill="#000000" stroke="none">
<path d="M350 1085 c-146 -34 -239 -88 -270 -158 -24 -51 -25 -71 -5 -87 22
-18 49 -4 79 45 25 39 73 83 80 73 2 -2 -7 -43 -19 -93 l-22 -90 -44 -3 c-47
-3 -72 -23 -62 -50 9 -24 23 -32 57 -32 l29 0 -7 -52 c-16 -121 -18 -195 -7
-234 12 -46 32 -60 63 -43 18 10 20 17 14 73 -5 51 14 231 26 241 2 1 81 8
177 15 198 14 221 19 221 54 0 42 -18 47 -121 36 -52 -5 -131 -10 -177 -10
-75 0 -83 2 -78 18 15 55 36 152 38 175 3 30 6 32 98 47 84 13 80 14 80 -13 0
-25 17 -47 37 -47 25 0 53 39 53 75 0 58 -27 75 -112 74 -40 -1 -98 -7 -128
-14z"/>
<path d="M811 978 c-11 -11 -28 -43 -37 -70 -18 -54 -9 -78 28 -78 19 0 20 -4
13 -67 -5 -49 -12 -71 -26 -81 -56 -39 -63 -69 -24 -100 22 -17 25 -28 25 -81
0 -52 4 -66 24 -86 17 -17 31 -23 43 -18 28 10 31 21 25 86 l-5 60 34 -6 c19
-4 93 -11 164 -17 84 -8 165 -22 229 -40 109 -32 136 -28 136 16 0 20 -9 28
-42 43 -73 31 -167 50 -324 65 -84 7 -159 18 -168 23 -14 8 -6 18 46 60 102
82 218 201 218 223 0 10 -9 24 -20 30 -25 13 -48 2 -83 -40 -14 -16 -29 -30
-34 -30 -4 0 -28 -21 -53 -46 -80 -81 -80 -80 -78 40 2 113 -6 136 -48 136
-13 0 -32 -10 -43 -22z"/>
</g>
</svg>
